<svg width="50" height="50" viewBox="0 0 50 50" fill="none" xmlns="http://www.w3.org/2000/svg">
<path d="M49.3281 11.3094C49.2511 11.0505 49.109 10.8157 48.9153 10.6275C48.7216 10.4393 48.4828 10.3039 48.2219 10.2344C47.9607 10.1633 47.6854 10.1623 47.4238 10.2314C47.1621 10.3005 46.9232 10.4373 46.7313 10.6281L40.4839 16.7346C39.2777 17.9136 37.5437 18.4161 35.8898 18.0852C33.9001 17.687 32.316 16.1257 31.9185 14.1359C31.5853 12.4684 32.118 10.7455 33.3341 9.55698L39.65 3.38438C39.8435 3.19571 39.9848 2.96007 40.0601 2.70047C40.1353 2.44087 40.1419 2.1662 40.0793 1.90328C40.0166 1.64036 39.8868 1.3982 39.7026 1.20044C39.5183 1.00268 39.286 0.856092 39.0281 0.775C37.5258 0.280586 35.9565 0.019222 34.375 0C25.7594 0 18.75 7.00937 18.75 15.625C18.75 17.5787 18.1739 19.5702 16.6246 20.7604C15.7152 21.459 14.7893 22.1507 13.8031 22.8875C11.1 24.9062 8.0375 27.1906 3.85938 30.7188C2.6582 31.7538 1.69235 33.0338 1.0267 34.4729C0.36104 35.9121 0.0109735 37.4769 0 39.0625C0 45.0938 4.90625 50 10.9375 50C12.5251 49.995 14.0923 49.6427 15.5294 48.9679C16.9664 48.2931 18.2384 47.3121 19.2562 46.0938C22.0226 42.845 24.6742 39.5002 27.2063 36.0656C27.9094 35.1255 28.5704 34.2428 29.2359 33.3765C30.4265 31.8264 32.4204 31.25 34.375 31.25C42.9906 31.25 50 24.2406 50 15.625C49.9856 14.1616 49.7593 12.7079 49.3281 11.3094ZM10.9375 42.1875C10.1087 42.1875 9.31384 41.8583 8.72779 41.2722C8.14174 40.6862 7.8125 39.8913 7.8125 39.0625C7.8125 38.2337 8.14174 37.4388 8.72779 36.8528C9.31384 36.2667 10.1087 35.9375 10.9375 35.9375C11.7663 35.9375 12.5612 36.2667 13.1472 36.8528C13.7333 37.4388 14.0625 38.2337 14.0625 39.0625C14.0625 39.8913 13.7333 40.6862 13.1472 41.2722C12.5612 41.8583 11.7663 42.1875 10.9375 42.1875Z" fill="white"/>
</svg>
