<svg width="88" height="70" viewBox="0 0 88 70" fill="none" xmlns="http://www.w3.org/2000/svg">
<path d="M77 0.547363H11C8.08358 0.550484 5.2875 1.71069 3.22527 3.7734C1.16305 5.83612 0.00311973 8.63287 0 11.55V58.7041C0.00311973 61.6212 1.16305 64.418 3.22527 66.4807C5.2875 68.5434 8.08358 69.7036 11 69.7067H77C79.9164 69.7036 82.7125 68.5434 84.7747 66.4807C86.837 64.418 87.9969 61.6212 88 58.7041V11.55C87.9969 8.63287 86.837 5.83612 84.7747 3.7734C82.7125 1.71069 79.9164 0.550484 77 0.547363ZM74.2146 18.7469L45.9289 40.7521C45.3774 41.181 44.6986 41.4139 44 41.4139C43.3014 41.4139 42.6226 41.181 42.0711 40.7521L13.7854 18.7469C13.453 18.4959 13.1739 18.1813 12.9642 17.8214C12.7544 17.4615 12.6183 17.0636 12.5637 16.6506C12.509 16.2377 12.537 15.818 12.6459 15.4159C12.7549 15.0139 12.9426 14.6375 13.1982 14.3087C13.4539 13.9798 13.7723 13.7051 14.135 13.5004C14.4977 13.2957 14.8974 13.1651 15.311 13.1163C15.7246 13.0675 16.1437 13.1014 16.5441 13.216C16.9445 13.3306 17.3181 13.5236 17.6432 13.7839L44 34.2881L70.3568 13.7839C71.0158 13.2861 71.8443 13.0677 72.6631 13.1761C73.4818 13.2845 74.225 13.7108 74.7319 14.363C75.2389 15.0151 75.4688 15.8406 75.372 16.661C75.2752 17.4814 74.8594 18.2307 74.2146 18.7469Z" fill="white"/>
</svg>
