<svg width="49" height="50" viewBox="0 0 49 50" fill="none" xmlns="http://www.w3.org/2000/svg">
<g clip-path="url(#clip0_15_2)">
<path d="M16.2024 38.8086C16.2024 39.0039 15.9778 39.1602 15.6946 39.1602C15.3723 39.1895 15.1477 39.0332 15.1477 38.8086C15.1477 38.6133 15.3723 38.457 15.6555 38.457C15.9485 38.4277 16.2024 38.584 16.2024 38.8086ZM13.1653 38.3691C13.097 38.5645 13.2923 38.7891 13.5852 38.8477C13.8391 38.9453 14.1321 38.8477 14.1907 38.6523C14.2493 38.457 14.0638 38.2324 13.7708 38.1445C13.5169 38.0762 13.2337 38.1738 13.1653 38.3691ZM17.4817 38.2031C17.1985 38.2715 17.0032 38.457 17.0325 38.6816C17.0618 38.877 17.3157 39.0039 17.6087 38.9355C17.8919 38.8672 18.0872 38.6816 18.0579 38.4863C18.0286 38.3008 17.7649 38.1738 17.4817 38.2031ZM23.9075 0.78125C10.3626 0.78125 0.00125122 11.0645 0.00125122 24.6094C0.00125122 35.4395 6.81766 44.707 16.554 47.9688C17.804 48.1934 18.2434 47.4219 18.2434 46.7871C18.2434 46.1816 18.2141 42.8418 18.2141 40.791C18.2141 40.791 11.3782 42.2559 9.94266 37.8809C9.94266 37.8809 8.82938 35.0391 7.22781 34.3066C7.22781 34.3066 4.99149 32.7734 7.38406 32.8027C7.38406 32.8027 9.8157 32.998 11.1536 35.3223C13.2923 39.0918 16.8763 38.0078 18.2727 37.3633C18.4973 35.8008 19.1321 34.7168 19.8352 34.0723C14.3763 33.4668 8.86844 32.6758 8.86844 23.2812C8.86844 20.5957 9.61063 19.248 11.1731 17.5293C10.9192 16.8945 10.0891 14.2773 11.427 10.8984C13.468 10.2637 18.1653 13.5352 18.1653 13.5352C20.1184 12.9883 22.218 12.7051 24.2981 12.7051C26.3782 12.7051 28.4778 12.9883 30.4309 13.5352C30.4309 13.5352 35.1282 10.2539 37.1692 10.8984C38.5071 14.2871 37.677 16.8945 37.4231 17.5293C38.9856 19.2578 39.9427 20.6055 39.9427 23.2812C39.9427 32.7051 34.1907 33.457 28.7317 34.0723C29.6302 34.8437 30.3919 36.3086 30.3919 38.6035C30.3919 41.8945 30.3626 45.9668 30.3626 46.7676C30.3626 47.4023 30.8118 48.1738 32.052 47.9492C41.8177 44.707 48.4388 35.4395 48.4388 24.6094C48.4388 11.0645 37.4524 0.78125 23.9075 0.78125ZM9.49344 34.4629C9.36649 34.5605 9.39578 34.7852 9.5618 34.9707C9.71805 35.127 9.94266 35.1953 10.0696 35.0684C10.1966 34.9707 10.1673 34.7461 10.0013 34.5605C9.845 34.4043 9.62039 34.3359 9.49344 34.4629ZM8.43875 33.6719C8.37039 33.7988 8.46805 33.9551 8.66336 34.0527C8.81961 34.1504 9.01492 34.1211 9.08328 33.9844C9.15164 33.8574 9.05399 33.7012 8.85867 33.6035C8.66336 33.5449 8.50711 33.5742 8.43875 33.6719ZM11.6028 37.1484C11.4466 37.2754 11.5052 37.5684 11.7298 37.7539C11.9544 37.9785 12.2376 38.0078 12.3645 37.8516C12.4915 37.7246 12.4329 37.4316 12.2376 37.2461C12.0227 37.0215 11.7298 36.9922 11.6028 37.1484ZM10.4895 35.7129C10.3333 35.8105 10.3333 36.0645 10.4895 36.2891C10.6458 36.5137 10.9095 36.6113 11.0364 36.5137C11.1927 36.3867 11.1927 36.1328 11.0364 35.9082C10.8997 35.6836 10.6458 35.5859 10.4895 35.7129Z" fill="white"/>
</g>
<defs>
<clipPath id="clip0_15_2">
<rect width="48.44" height="50" fill="white"/>
</clipPath>
</defs>
</svg>
