<svg width="84" height="52" viewBox="0 0 84 52" fill="none" xmlns="http://www.w3.org/2000/svg">
<path d="M47.1348 0.510549C47.1352 0.510549 47.1352 0.511122 47.1348 0.511203C46.4294 0.65768 45.8002 1.03953 45.3585 1.58943C44.9161 2.14015 44.6901 2.82391 44.7207 3.5197C44.7207 3.62603 44.6315 3.7106 44.5253 3.70496L15.5096 2.16263C15.1119 2.15932 14.7175 2.23231 14.3493 2.37733C13.9812 2.52235 13.6467 2.73651 13.3653 3.00732C13.0839 3.27814 12.8613 3.6002 12.7104 3.95475C12.5595 4.30929 12.4833 4.68922 12.4863 5.07241C12.4829 5.45586 12.5587 5.83613 12.7095 6.19103C12.8602 6.54593 13.0827 6.86837 13.3642 7.13951C13.6456 7.41066 13.9802 7.6251 14.3486 7.77032C14.7169 7.91553 15.1116 7.98861 15.5096 7.98529L40.7181 6.64534C42.8934 6.52971 44.7207 8.26241 44.7207 10.4408C44.7207 11.9537 43.7955 13.2844 42.5331 14.1182C42.0594 14.4311 41.606 14.7712 41.1753 15.1367C39.6255 16.4518 37.7737 17.4941 35.7411 17.4941H7.45183C5.84028 17.4941 5.45673 20.1151 7.24878 20.407C7.67989 20.4748 21.0561 23.6163 31.2816 26.0218C33.6486 26.5786 35.1512 28.8412 35.1512 31.2728C35.1512 42.2195 45.0752 42.2412 57.3101 42.2412C69.5451 42.2412 79.3659 42.2226 79.3659 31.2728C79.3659 20.3356 64.5106 11.4758 52.2724 11.4758C51.4531 11.4758 50.764 10.8823 50.764 10.063V8.99128C50.764 7.60067 51.9304 6.49459 53.3191 6.56841L79.9718 7.98529C80.3698 7.98861 80.7645 7.91553 81.1329 7.77032C81.5012 7.6251 81.8359 7.41066 82.1173 7.13951C82.3987 6.86837 82.6213 6.54593 82.772 6.19103C82.9227 5.83613 82.9986 5.45586 82.9951 5.07241C82.9986 4.68896 82.9227 4.3087 82.772 3.95379C82.6213 3.59889 82.3987 3.27646 82.1173 3.00531C81.8359 2.73416 81.5012 2.51972 81.1329 2.37451C80.7645 2.22929 80.3698 2.15621 79.9718 2.15953L50.953 3.70202C50.8485 3.70757 50.7608 3.62434 50.7608 3.5197C50.7709 3.10553 50.6904 2.69394 50.5245 2.31174C50.3585 1.92954 50.1109 1.5853 49.7978 1.30142C49.4846 1.01755 49.1129 0.800409 48.7068 0.664144C48.3007 0.52788 47.8694 0.475546 47.441 0.510549C47.339 0.505629 47.2368 0.505629 47.1348 0.510549ZM7.45183 11.8671C5.47548 11.8671 3.58008 12.6235 2.18259 13.97C0.785102 15.3164 0 17.1426 0 19.0468C0 20.951 0.785102 22.7772 2.18259 24.1236C3.58008 25.4701 5.47548 26.2265 7.45183 26.2265C8.67194 26.2265 9.80884 25.9387 10.8109 25.4327C12.1701 24.7464 11.6514 22.9664 10.182 22.5672C9.6565 22.4245 9.10487 22.5124 8.59496 22.7037C8.2346 22.8388 7.85275 22.9286 7.45183 22.9286C5.24078 22.9286 3.42294 21.174 3.42294 19.0468C3.42294 16.9196 5.244 15.165 7.45183 15.165C8.21244 15.165 8.90466 15.369 9.49838 15.7256C9.96404 16.0053 10.474 16.2333 11.0173 16.2333C12.5674 16.2333 13.5362 14.6262 12.3507 13.6274C12.1031 13.4187 11.8403 13.2255 11.5638 13.0492C10.3446 12.272 8.91366 11.8606 7.45183 11.8671ZM57.8129 17.6866C63.5501 17.6866 73.4257 22.8509 73.4257 29.332C73.4257 31.7604 70.815 32.9249 61.9417 32.9249C56.1208 32.9249 54.4899 30.3164 54.4899 27.0029C54.4899 21.9938 55.1281 17.6866 57.8129 17.6866ZM79.6689 42.4368C79.4695 42.4274 79.2695 42.4528 79.0789 42.5118C78.6896 42.6324 78.3284 42.8272 78.0171 43.0857C77.7095 43.3412 77.4585 43.6524 77.2777 44.0006C77.2447 44.0642 77.0133 44.3441 76.9486 44.3746C76.0557 44.8063 73.242 45.6385 67.0794 45.6385H32.4096C31.8874 45.6385 31.3632 45.5655 30.8431 45.6127C30.6636 45.629 30.4854 45.6605 30.3107 45.7073C29.8829 45.8218 29.4861 46.0245 29.1477 46.3015C28.8093 46.5784 28.5375 46.9229 28.3511 47.3112C28.1647 47.6994 28.0681 48.1221 28.0681 48.5499C28.0681 48.9776 28.1647 49.4003 28.3511 49.7885C28.5375 50.1768 28.8093 50.5213 29.1477 50.7982C29.4861 51.0752 29.8829 51.2779 30.3107 51.3924C30.4854 51.4392 30.6636 51.4707 30.8431 51.487C31.3632 51.5342 31.8874 51.4612 32.4096 51.4612H67.0794C73.7544 51.4612 77.3289 50.7376 79.6689 49.6166C80.8388 49.0545 81.7349 48.362 82.2892 47.5763C82.5664 47.185 82.7792 46.7782 82.892 46.4118C82.937 46.2709 82.9626 46.1085 82.9771 45.9625C83.0048 45.6834 83.0137 45.4011 82.9886 45.1218C82.9635 44.8416 82.8969 44.5657 82.7902 44.3024C82.6304 43.9081 82.3844 43.5515 82.0688 43.2569C81.7533 42.9623 81.3756 42.7366 80.9615 42.5951C80.5474 42.4536 80.1065 42.3996 79.6689 42.4368Z" fill="white"/>
</svg>
