<svg width="69" height="70" viewBox="0 0 69 70" fill="none" xmlns="http://www.w3.org/2000/svg">
<path d="M63.4814 0.547363H5.89579C2.74921 0.547363 0 2.81665 0 5.93346V63.7803C0 66.9141 2.74921 69.7067 5.89579 69.7067H63.4645C66.628 69.7067 68.9999 66.8956 68.9999 63.7803V5.93346C69.0184 2.81665 66.628 0.547363 63.4814 0.547363ZM21.3884 58.1951H11.5036V27.3898H21.3884V58.1951ZM16.7879 22.7061H16.7171C13.5535 22.7061 11.5051 20.3458 11.5051 17.3911C11.5051 14.3823 13.6075 12.0775 16.8418 12.0775C20.0762 12.0775 22.0553 14.3653 22.1262 17.3911C22.1246 20.3458 20.0762 22.7061 16.7879 22.7061ZM57.5148 58.1951H47.6299V41.3514C47.6299 37.3161 46.1914 34.5589 42.6151 34.5589C39.8829 34.5589 38.2657 36.4114 37.5464 38.2161C37.2769 38.8644 37.2045 39.7474 37.2045 40.649V58.1951H27.3196V27.3898H37.2045V31.6768C38.643 29.6236 40.8901 26.6689 46.119 26.6689C52.6078 26.6689 57.5163 30.9559 57.5163 40.1982L57.5148 58.1951Z" fill="white"/>
</svg>
