<svg width="20" height="20" viewBox="0 0 20 20" fill="none" xmlns="http://www.w3.org/2000/svg">
<path d="M10.1399 0.0009291C4.51611 -0.0750253 -0.0750289 4.51589 0.000929144 10.1394C0.0759257 15.5326 4.46755 19.9241 9.86105 19.999C15.4858 20.076 20.076 15.485 19.999 9.86154C19.925 4.46734 15.5334 0.075922 10.1399 0.0009291ZM14.5676 6.11766L10.6139 15.0841C10.3836 15.5874 9.61491 15.4206 9.61491 14.8649V10.5769C9.61491 10.5259 9.59465 10.4769 9.55859 10.4409C9.52252 10.4048 9.47361 10.3846 9.42261 10.3846H5.13531C4.58149 10.3846 4.41419 9.62166 4.91561 9.39091L13.883 5.43311C13.9788 5.38887 14.0859 5.37507 14.1898 5.39359C14.2937 5.41211 14.3894 5.46205 14.464 5.53667C14.5386 5.61129 14.5886 5.707 14.6071 5.81089C14.6256 5.91478 14.6118 6.02185 14.5676 6.11766Z" fill="white"/>
</svg>
