<svg width="40" height="40" viewBox="0 0 40 40" fill="none" xmlns="http://www.w3.org/2000/svg">
<g opacity="0.5">
<path opacity="0.5" d="M20 40C8.9543 40 0 31.0457 0 20C0 8.95431 8.9543 0 20 0C31.0457 0 40 8.95431 40 20C40 31.0457 31.0457 40 20 40Z" fill="url(#paint0_linear_28_76)"/>
</g>
<path d="M19.9611 39.4504C9.14833 39.4504 0.382858 30.6849 0.382858 19.8722C0.382858 9.05941 9.14833 0.293945 19.9611 0.293945C30.7738 0.293945 39.5393 9.05941 39.5393 19.8722C39.5393 30.6849 30.7738 39.4504 19.9611 39.4504Z" fill="#FDFDFD"/>
<path d="M19.9428 39.5279C16.1172 39.5341 12.3744 38.414 9.18115 36.3072C9.90264 32.3645 12.6482 32.1399 12.6482 32.1399H27.7886C27.7886 32.1399 30.3794 32.3525 31.1886 35.9794C27.8964 38.2952 23.9679 39.5348 19.9428 39.5279Z" fill="#0C0C0C"/>
<path d="M20.1507 28.9095C14.9317 28.9095 10.7009 24.6786 10.7009 19.4596C10.7009 14.2406 14.9317 10.0098 20.1507 10.0098C25.3697 10.0098 29.6006 14.2406 29.6006 19.4596C29.6006 24.6786 25.3697 28.9095 20.1507 28.9095Z" fill="#333333"/>
<path opacity="0.1" d="M23.2006 27.3306H17.1455V32.1747C17.1455 32.9774 17.4644 33.7473 18.0319 34.3151C18.5994 34.8828 19.3692 35.2019 20.1719 35.2022V35.2022C20.9749 35.2022 21.7449 34.8832 22.3127 34.3155C22.8804 33.7477 23.1994 32.9776 23.1994 32.1747V27.3306H23.2006Z" fill="black"/>
<path d="M23.0086 27.106H17.3353C17.2844 27.106 17.2355 27.1262 17.1995 27.1622C17.1635 27.1982 17.1433 27.247 17.1433 27.2979V31.9501C17.1432 32.3478 17.2215 32.7416 17.3737 33.1091C17.5259 33.4766 17.749 33.8104 18.0302 34.0916C18.3115 34.3728 18.6454 34.5959 19.0129 34.748C19.3804 34.9001 19.7742 34.9783 20.172 34.9782V34.9782C20.9749 34.9782 21.745 34.6592 22.3127 34.0914C22.8805 33.5237 23.1995 32.7536 23.1995 31.9507V27.2979C23.1995 27.2472 23.1794 27.1986 23.1436 27.1626C23.1079 27.1266 23.0593 27.1063 23.0086 27.106V27.106Z" fill="#FDB797"/>
<path opacity="0.1" d="M23.1897 29.6173C21.2382 30.3464 19.0901 30.3523 17.1347 29.6339V28.8889H23.1897V29.6173Z" fill="black"/>
<path d="M20.1508 30.0225C15.3574 30.0225 11.4717 26.1367 11.4717 21.3434C11.4717 16.5501 15.3574 12.6643 20.1508 12.6643C24.9441 12.6643 28.8298 16.5501 28.8298 21.3434C28.8298 26.1367 24.9441 30.0225 20.1508 30.0225Z" fill="#FDB797"/>
<path opacity="0.1" d="M26.3329 13.4486C26.3329 13.4486 22.675 20.8732 12.357 16.5615L14.7592 12.7947L19.0177 11.2664L26.3329 13.4486Z" fill="black"/>
<path d="M26.3329 13.3399C26.3329 13.3399 22.675 20.7645 12.357 16.4516L14.7592 12.6849L19.0177 11.1565L26.3329 13.3399Z" fill="#333333"/>
<path d="M26.3651 12.8368C26.1184 12.0733 25.6922 11.3801 25.1221 10.8156C23.4149 9.12789 20.6161 8.77201 19.1806 6.84766C18.8367 7.38175 19.1026 8.20296 19.6963 8.43218C18.321 8.42301 16.7273 8.30267 15.9496 7.17144C15.7574 7.61885 15.6962 8.11161 15.773 8.59246C15.8497 9.0733 16.0614 9.52248 16.3834 9.88777C15.1645 9.94508 13.8619 10.7703 13.7851 11.9881C13.7324 12.7995 14.2436 13.5674 14.9078 14.0328C15.572 14.4981 16.3811 14.7118 17.1748 14.8866C19.4923 15.3984 27.8774 17.5399 26.3651 12.8368Z" fill="#333333"/>
<path d="M28.8333 22.8494C28.3874 22.8494 28.0258 22.1715 28.0258 21.3353C28.0258 20.4991 28.3874 19.8213 28.8333 19.8213C29.2792 19.8213 29.6407 20.4991 29.6407 21.3353C29.6407 22.1715 29.2792 22.8494 28.8333 22.8494Z" fill="#FDB797"/>
<path d="M11.4727 22.8494C11.0268 22.8494 10.6653 22.1715 10.6653 21.3353C10.6653 20.4991 11.0268 19.8213 11.4727 19.8213C11.9186 19.8213 12.2802 20.4991 12.2802 21.3353C12.2802 22.1715 11.9186 22.8494 11.4727 22.8494Z" fill="#FDB797"/>
<defs>
<linearGradient id="paint0_linear_28_76" x1="20" y1="40" x2="20" y2="0" gradientUnits="userSpaceOnUse">
<stop stop-color="#808080" stop-opacity="0.25"/>
<stop offset="0.54" stop-color="#808080" stop-opacity="0.12"/>
<stop offset="1" stop-color="#808080" stop-opacity="0.1"/>
</linearGradient>
</defs>
</svg>
