<svg width="50" height="48" viewBox="0 0 50 48" fill="none" xmlns="http://www.w3.org/2000/svg">
<path d="M0 5.5C0 4.17392 0.526784 2.90215 1.46447 1.96447C2.40215 1.02678 3.67392 0.5 5 0.5H45C46.3261 0.5 47.5978 1.02678 48.5355 1.96447C49.4732 2.90215 50 4.17392 50 5.5V33C50 34.3261 49.4732 35.5978 48.5355 36.5355C47.5978 37.4732 46.3261 38 45 38H27.5V43H35C35.663 43 36.2989 43.2634 36.7678 43.7322C37.2366 44.2011 37.5 44.837 37.5 45.5C37.5 46.163 37.2366 46.7989 36.7678 47.2678C36.2989 47.7366 35.663 48 35 48H15C14.337 48 13.7011 47.7366 13.2322 47.2678C12.7634 46.7989 12.5 46.163 12.5 45.5C12.5 44.837 12.7634 44.2011 13.2322 43.7322C13.7011 43.2634 14.337 43 15 43H22.5V38H5C3.67392 38 2.40215 37.4732 1.46447 36.5355C0.526784 35.5978 0 34.3261 0 33V5.5ZM45 33V5.5H5V33H45Z" fill="white"/>
</svg>
