<svg width="69" height="70" viewBox="0 0 69 70" fill="none" xmlns="http://www.w3.org/2000/svg">
<path fill-rule="evenodd" clip-rule="evenodd" d="M58.9472 10.5972C55.7576 7.39871 51.9683 4.86412 47.7974 3.13937C43.6266 1.41462 39.1566 0.533769 34.6447 0.547522C15.7098 0.547522 0.295714 15.92 0.288013 34.8184C0.279636 40.836 1.86222 46.7485 4.87466 51.9538L0 69.7067L18.2126 64.9412C23.2539 67.6786 28.8973 69.1113 34.6309 69.1093H34.6447C53.5781 69.1093 68.9906 53.7353 68.9999 34.8384C69.0114 30.3316 68.1285 25.8675 66.4027 21.7058C64.6768 17.5441 62.1425 13.768 58.9472 10.5972ZM34.6447 63.3249H34.6324C29.5211 63.3264 24.5028 61.9554 20.0993 59.3545L19.0566 58.737L8.24918 61.5651L11.1339 51.0538L10.4547 49.9732C7.59674 45.438 6.08254 40.1825 6.08832 34.8184C6.08832 19.114 18.9041 6.33652 34.6555 6.33652C42.2116 6.32299 49.4636 9.31829 54.8166 14.6636C60.1695 20.0089 63.1849 27.2665 63.1996 34.84C63.1934 50.5459 50.3838 63.3249 34.6447 63.3249ZM50.3068 41.9921C49.4489 41.5629 45.2242 39.4912 44.4418 39.2057C43.6594 38.9201 43.0818 38.7765 42.5104 39.6348C41.939 40.4931 40.2925 42.4135 39.792 42.9924C39.2914 43.5713 38.7909 43.6346 37.933 43.2055C37.0751 42.7763 34.3074 41.8732 31.0284 38.9556C28.4763 36.6847 26.7544 33.8813 26.2538 33.0246C25.7533 32.1678 26.1999 31.7031 26.6296 31.2771C27.0162 30.8927 27.4875 30.2767 27.9172 29.7765C28.3469 29.2764 28.4902 28.9182 28.7751 28.347C29.06 27.7759 28.9183 27.2757 28.7043 26.8481C28.4902 26.4205 26.7729 22.2045 26.0582 20.4895C25.3605 18.8191 24.6536 19.0461 24.1269 19.0198C23.6263 18.9951 23.0487 18.9889 22.4804 18.9889C22.0459 19.0003 21.6185 19.1013 21.2247 19.2856C20.8309 19.4699 20.4793 19.7337 20.1917 20.0603C19.4047 20.9186 17.1868 22.9934 17.1868 27.2047C17.1868 31.416 20.2672 35.4914 20.6923 36.0626C21.1174 36.6338 26.7452 45.2833 35.3563 48.9929C36.9553 49.6793 38.5891 50.2811 40.251 50.796C42.3071 51.4475 44.1784 51.3564 45.657 51.1356C47.3065 50.8902 50.7396 49.0639 51.4527 47.0633C52.1658 45.0626 52.1673 43.349 51.9532 42.9924C51.7391 42.6358 51.1662 42.4197 50.3068 41.9921Z" fill="white"/>
</svg>
